<?xml version="1.0" encoding="utf-8"?>
<!-- Generator: Adobe Illustrator 27.1.0, SVG Export Plug-In . SVG Version: 6.00 Build 0)  -->
<svg version="1.1" id="Layer_1" xmlns="http://www.w3.org/2000/svg" xmlns:xlink="http://www.w3.org/1999/xlink" x="0px" y="0px"
	 viewBox="0 0 693 605" style="enable-background:new 0 0 693 605;" xml:space="preserve">
<style type="text/css">
	.st0{fill:#322139;}
	.st1{fill:#FC5198;}
</style>
<g>
	<g>
		<path class="st0" d="M0.5,0.5h693v605H0.5V0.5z M330.84,59.08c-69.31,2.8-135.53,39.82-175.46,96.31
			c-23.54,34-38.85,74-41.57,115.39c-1.25,20.31,0.24,40.71,3.48,60.79c8.56,43.81,30.27,84.87,61.21,116.93
			c22.86,21.92,48.94,41.1,78.82,52.31c30.16,12.55,63.3,17.74,95.85,16.24c51.86-2.28,102.77-22.77,141.56-57.32
			c3.66-3.69,7.32-7.37,11.51-10.47c3-4.58,7.2-8.13,11.05-11.97c4.95-7.61,11.45-14.04,16.2-21.79
			c18.85-29.11,31.94-62.21,36.56-96.64c4.44-32.15,1.36-65.18-7.57-96.36c-10.44-35.4-29.93-67.94-55.45-94.55
			C461.57,81.54,395.96,54.66,330.84,59.08z"/>
	</g>
	<g>
		<path class="st0" d="M324.84,64.04c57.58-4.76,116.91,13.76,160.86,51.26c7.06,6.62,15.61,11.77,21.16,19.89
			c40.07,42.23,62.68,100.98,59.65,159.31c0.89,14.05-1.22,28.03-4.51,41.65c-8.71,38.41-26.89,75.08-54.23,103.61
			c-4.4,5.89-9.7,11.01-15.54,15.46c-53.86,49.58-133.57,69.12-204.37,50.75c-49.76-12.14-94.97-42.31-125.4-83.44
			c-34.52-44.66-49.45-103.08-43.74-158.97c5.53-51.39,29.71-100.22,66.52-136.32c20.3-19.25,43.86-35.27,69.6-46.28
			C277.05,71.53,300.87,66.11,324.84,64.04z M327.71,85.63c-0.27,0.27-0.81,0.8-1.08,1.07c0.34,10.35,2.93,20.58,3.85,30.92
			c-7.43-6.98-13.8-14.82-21.69-21.39c-2.62-3.13-5.6-8.72-10.25-5.61c1.33,12.3,3.62,24.51,5.05,36.82
			c0.14,2.62,3.11,2.09,4.94,2.06c-1.18-10.38-3.96-20.65-3.97-31.18c6.04,5.3,11.47,11.31,17,17.12c4.61,3.42,7.17,11,13.94,10.06
			c-0.46-10.84-2.57-21.55-3.58-32.34C331.36,91.35,331.35,84.79,327.71,85.63z M374.7,88.59c-5.88,9.11-11.82,18.19-17.98,27.13
			c-1.73,3.24-4.56,6.06-5.32,9.75c7.01,3.42,6.23-5.9,10.19-7.95c7,0.28,13.82,2.01,20.7,3.21c2.05,4.02-0.72,14,7.27,10.75
			c-2.55-13.34-6.62-26.37-9.49-39.65C379.86,89.07,376.81,89.06,374.7,88.59z M413.7,98.63c-1.7,1.05-2.13,4.93,0.82,4.85
			c3.13,1.82,8.23,2.71,9.92,6.01c-3.76,7.61-7.44,15.27-11.01,22.97c-1.59,2.46-3.13,4.99-3.73,7.89c1,1.65,3.09,1.11,4.71,1.13
			c5.18-9.76,9.25-20.1,14.24-29.92c4.82-0.82,8.1,4,12.68,4.73c0.9-1.04,2.6-1.97,2.08-3.61c-7.35-4.66-15.75-7.37-23.3-11.67
			C417.96,100.31,415.98,98.71,413.7,98.63z M237.79,114.8c-4.07,0.41-1.24,4.34,0.45,5.96c4.85,6.61,9.97,13.21,13.23,20.81
			c1.09,8.37-7.75,15.25-15.67,13.67c-8.98-4.91-13.11-15.09-19.12-22.89c-1.21-2.07-5.02-0.37-4.16,2.05
			c4.46,7.1,9.34,13.95,14.66,20.42c3.94,3.1,8.34,7.7,13.99,5.28c5.92-1.39,10.96-5.78,13.98-10.89c3.06-7.16-1.13-14.44-5.2-20.19
			c-3.72-4.66-6.48-10.05-10.68-14.34C238.9,114.71,238.16,114.77,237.79,114.8z M463.71,127.63c-7.5,9.86-15.12,19.64-22.57,29.54
			c-2.19,2.36,2.25,3.81,3.97,3.02c3.94-5.7,8.45-10.98,12.5-16.61c3.61-4.95,8.62-9.04,10.78-14.92
			C466.88,128.14,465.36,127.16,463.71,127.63z M327.84,149.05c-38.26,3.69-74.82,24.33-97.32,55.46
			c-16.57,21.52-25.93,48.25-27.72,75.27c-2.22,39.64,13.07,80.07,41.7,107.72c10.42,9.8,21.71,19.23,34.92,25.12
			c45.97,24.29,105.37,18.76,146.7-12.54c33.1-23.77,53.3-63.23,56.35-103.56c1.96-42.07-14.81-85.39-47.02-112.98
			C406.57,157.57,366.52,144.45,327.84,149.05z M484.84,154.95c-9.17,1.37-16.76,8.3-20.03,16.82c-1.61,8.54,2.94,17.85,10.76,21.65
			c14.03,5.84,31.77-7.56,29.56-22.59C502.78,162.21,494.4,153.21,484.84,154.95z M192.79,159.8
			c-10.63,0.53-14.99,11.96-20.95,19.02c-1.25,1.63,1.35,2.3,2.26,3.15c9.29,7,18.83,13.69,27.7,21.23
			c0.37,0.04,1.11,0.11,1.48,0.14c3.41-3.99,6.1-8.58,9.52-12.56c4.5-5.65,5.66-14.37,0.46-20.04
			C208.07,165,200.97,159.28,192.79,159.8z M522.81,202.88c-11.34,4.49-22.78,8.75-34.29,12.79c0.79,1.65,0.1,5.67,2.88,4.68
			c8.91-3.61,17.88-7.16,27.1-9.91c-5.85,11.18-13.39,21.38-20.01,32.12c-0.03,1.37,0.75,2.57,1.2,3.83
			c2.81,0.74,5.15-1.22,7.66-2.1c9.75-4.48,20.5-6.81,29.92-11.9c-0.66-1.55-0.17-4.77-2.72-3.79c-8.85,3.7-17.99,6.74-27,10.01
			c5.95-11.11,13.65-21.24,19.93-32.17C528.54,203.43,525.37,201.37,522.81,202.88z M157.7,206.67c-0.73,0.91-1.95,1.63-2.05,2.9
			c-1.73,8.06-6.91,15.3-7.01,23.65c9.27,4.31,19.37,6.46,28.77,10.42c2.57,0.78,5.11,2.27,7.88,1.75c2.9-8.94,6.97-17.55,9.13-26.7
			c-1.22-0.41-2.38-1.15-3.69-1.11c-2.82,7.62-5.82,15.17-8.44,22.86c-4.07-0.8-7.74-2.94-11.69-4.16
			c0.3-7.51,6.11-14.03,5.93-21.77c-2.42,0.15-6.44-1.21-5.17,3.96c-1.82,4.92-3.1,10.04-5.06,14.92c-4.44,0.62-8.66-1.58-12.71-3.1
			c0.49-5.94,4.12-11.26,5.7-16.96C160.43,210.7,162.34,204.78,157.7,206.67z M500.71,329.63c-1.69,0.96-1.24,3.04-1.09,4.65
			c7.28,2.82,14.62,5.42,21.97,8.05c1.81,0.67,3.9,1.12,4.98,2.89c-10.96,3.13-21.65,7.08-32.8,9.57c-2.14,1-5.15,2.61-4.14,5.46
			c9.99,4.39,20.36,7.8,30.57,11.62c2.35,0.86,4.72,1.93,7.29,1.65c-0.18-1.6,0.78-4.06-1.3-4.65c-8.66-2.95-17.01-6.7-25.69-9.58
			c0.31-0.39,0.91-1.18,1.21-1.57c11.54-3.37,23.42-5.74,34.48-10.55c1.91-0.56,1.86-3.76,0.02-4.38
			C524.41,338.41,512.53,333.67,500.71,329.63z M181.8,330.87c-11.49,4.08-23.35,7.41-34.35,12.71c2.46,8.54,5.68,16.94,8.83,25.18
			c0.69,2.53,5.12,1.25,4.09-1.2c-2.3-7.08-5.08-14-7.73-20.96c3.24-2.14,7.14-3.16,10.86-4.1c4.59-0.57,3.34,6.46,5.14,8.96
			c1.65,3.19,2.18,6.88,4.01,9.95c1.3,0.12,2.6,0.15,3.9,0.08c-0.89-7.6-5.82-14.33-6.97-21.71c4.29-0.94,8.05-3.91,12.69-3.18
			c2.85,7.25,4.81,14.92,8.39,21.84c2.85,0.67,3.38-2.79,2.63-4.79c-3.31-7.57-5.34-15.69-8.94-23.12
			C183.71,330.62,182.44,330.79,181.8,330.87z M200.81,373.81c-9.57,7.49-19.31,14.77-29.07,22c-0.06,0.41-0.19,1.23-0.25,1.64
			c4.93,6.84,10.01,14.18,17.27,18.78c5.42,1.04,11.42-0.13,15.71-3.74c5.68-2.86,10.05-8.15,11.63-14.32
			c1.06-8.15-5.28-14.55-9.66-20.62C205.21,376.01,203.47,372.18,200.81,373.81z M477.8,381.78c-7.15,2.91-11.35,9.58-13.19,16.78
			c-0.65,15.04,18,28.22,31.58,20.62c3.57-3.15,7.13-6.52,9.01-10.99C509.09,392.9,492.55,378.31,477.8,381.78z M233.72,411.63
			c-4.06,5.94-8.71,11.47-12.57,17.57c-2.13,3.36-5.14,6.87-3.67,11.29c-1.51,5.9,3.97,9.15,7.25,12.76
			c2.95,1.82,5.92,4.3,9.78,3.26c6.49,1.77,10.66-4.42,14.75-8.24c3.98-6.01,8.22-11.83,12.31-17.76c-1.21-1.03-2.06-3.13-3.89-2.97
			c-2.45,4.47-5.61,8.47-8.55,12.62c-3.84,4.9-7.7,11.67-14.63,12.34c-6.08-1.02-12.11-5.65-13-12c1.7-10.76,11.6-17.47,15.99-27
			C237.45,411.58,235.22,411.16,233.72,411.63z M442.71,416.62c-3.79,3.25,2.62,6.93,3.91,9.73c6.44,7.34,11.45,15.81,18.09,22.99
			c1.76,0.63,3.2-1.49,3.83-2.83c-5.17-8.03-11.71-15.03-17.31-22.75C448.35,421.64,447.13,415.49,442.71,416.62z M424.81,428.87
			c-8.86,4.24-17.84,8.01-26.6,12.34c-1.81,1.09-0.35,5.32,2,3.96c4.46-0.48,7.33-5.61,12-4.53c4.34,9.61,9.1,19.11,13.3,28.84
			c-0.05,3.65,6.14,2.19,4.89-0.91c-2.87-8.01-7.58-15.27-10.71-23.22c-0.75-2.63-3.83-4.6-3.03-7.56c3.9-1.85,7.78-3.74,11.72-5.51
			C429.34,429.99,427.12,427.39,424.81,428.87z M303.73,447.56c-2.06,12.92-4.72,25.84-5.25,38.94l4.87-0.03
			c0.76-8.02,2.24-15.95,3.02-23.96c-0.95-2.92-0.34-4.9,1.85-5.95c5.19,10.92,11.5,21.3,17.25,31.94c0.23,2.94,3.08,1.85,4.86,1.9
			c2.35-5.75,1.55-12.24,2.79-18.24c1.66-6.74,2.01-13.68,3.09-20.51c-1.16-0.43-2.27-1.19-3.54-1.1c-1.23,1.4-1.48,3.29-2,5.02
			c-1.17,8.3-2.39,16.59-3.25,24.94c-2.37,0.65-1.77-2-2.62-3.32c-5.65-9.77-11.14-19.62-16.62-29.48L303.73,447.56z M368.69,447.58
			c-0.22,0.3-0.67,0.9-0.89,1.2c-3.59,13.89-7.07,27.72-10.31,41.71c9.82,2.52,2.44-16.07,13.67-12.51
			c4.98-0.56,9.99-2.79,15.02-2.25c1.78,2.9,3.2,6.09,5.5,8.65c1.63,0.23,3.62,0.45,4.76-1.03c-6.15-10.01-13-19.59-19.33-29.5
			C374.56,451.21,374.41,444.53,368.69,447.58z"/>
	</g>
	<path class="st0" d="M375.64,95.8l0.65-0.4c0.62,6.86,3.52,13.29,4.26,20.12c-5.09-0.12-10.02-1.64-15.06-2.15
		c-0.12-1.38,0.12-2.77,1.02-3.87C369.68,105.03,372.74,100.47,375.64,95.8z"/>
	<g>
		<path class="st0" d="M336.84,155.03c33.38-1.9,67.67,10.18,92.61,32.51c23.77,19.97,39.86,48.91,44.43,79.62
			c8.05,45.77-10.99,94.67-47.08,123.68c-42.74,36.29-109.28,40.58-156.02,9.37c-38.32-23.79-62.48-68.52-61.33-113.71
			c-0.7-53.65,35.91-104.76,86.05-123C308.54,157.84,322.78,156.12,336.84,155.03z M337.84,164.08
			c-32.28,0.79-63.8,15.35-85.92,38.79c-6.01,7.09-11.64,14.53-16.72,22.34c-13.24,23.27-19.74,50.63-15.92,77.37
			c3.34,29.66,17.54,58.35,40.39,77.76c23.24,21.56,55.27,32.65,86.84,32.13c14.49-1.57,29.23-3.31,42.68-9.31
			c21.51-8.79,41.14-23.39,54.12-42.85c5.77-5.85,8.4-13.7,12.18-20.81c21.09-43.71,12.04-99.63-20.97-135.02
			C410.32,177.92,373.99,161.59,337.84,164.08z"/>
	</g>
	<path class="st0" d="M485.78,159.79c5.22-0.72,11,2.55,12.73,7.7c7.82,12.61-12.69,29.83-23.84,19.84
		c-4.51-3.02-5.18-8.8-5.15-13.76C472.15,166.82,478.53,160.82,485.78,159.79z"/>
	<path class="st0" d="M190.81,164.77c4.57-1.77,8.48,1.01,12.07,3.3c3.44,2.2,6.66,4.91,8.35,8.73c2.2,7.71-3.67,13.95-7.96,19.55
		c-0.43,0.04-1.28,0.12-1.71,0.16c-8.33-5.59-16.31-11.88-24.17-18.04C181.59,173.67,184.65,167.4,190.81,164.77z"/>
	<path class="st0" d="M282.74,194.6c2.95-0.68,6-0.27,8.63,1.12c0.33,58.58-0.01,117.17,0.17,175.75
		c33.97,0.04,67.95,0.08,101.93-0.02c0.03-8.98,0.14-17.95-0.02-26.92c-24.97-0.13-49.94,0.07-74.91-0.07
		c-0.1-8.31-0.11-16.63,0-24.93c2.43-0.02,7.28-0.05,9.71-0.07c-0.96,5.26,0.53,10.66,0.34,16c24.56,0.26,49.15-0.28,73.7,0.2
		c0.27,0.26,0.8,0.8,1.07,1.06c0.31,13.59,0.09,27.19,0.14,40.79c0.29,3.22-4.25,5.49-6.99,3.98c-37.93-0.09-75.89,0.24-113.8-0.15
		c-0.27-0.26-0.8-0.8-1.07-1.06c-0.23-61.51-0.24-123.03,0-184.54C281.91,195.45,282.46,194.89,282.74,194.6z"/>
	<path class="st0" d="M300.72,194.64c33.58-0.3,67.17-0.1,100.75-0.1c0.05,15.31,0.07,30.62-0.01,45.93
		c-21.31,0.01-42.63,0.14-63.94-0.04c0-2.47,0-7.42,0-9.89c18.31-0.16,36.62,0.08,54.94-0.08c0.08-8.64,0.11-17.29,0-25.93
		c-27.64-0.03-55.29-0.11-82.93,0.03c-0.04,25.64-0.09,51.27,0.02,76.91c20.64,0.15,41.29-0.1,61.93,0.08
		c-1.27,2.75,1.71,7.58-1.2,9.81c-22.26,0.32-44.53,0.07-66.79,0.13c-3.2,0.3-5.55-4.23-3.98-6.98c0.1-29.6-0.25-59.22,0.15-88.8
		C299.92,195.44,300.46,194.91,300.72,194.64z"/>
	<path class="st0" d="M318.54,212.54c21.31-0.03,42.63-0.14,63.94,0.03c-1.28,2.71,1.7,7.54-1.18,9.75
		c-15.87-1.72-31.89-0.42-47.82-0.84c-1.98,0.03-5.14,0.39-5.19,2.93c-1.61,8.57-0.46,17.41-0.81,26.09
		c0.46,4.23-1.04,8.97,1.23,12.87c20.58,0.37,41.17-0.06,61.76,0.18c0.06,15.3,0.07,30.61-0.01,45.92
		c-26.98,0.12-53.95-0.07-80.93,0.07c0,14.64-0.17,29.29,0.04,43.93c23.98,0.11,47.96-0.03,71.94,0.03
		c4.83-0.46,3.92,7.51,1.76,9.86c-9.58,0.26-19.17,0.5-28.7-0.58c-17.91,1.43-35.95,0.57-53.89,0.59c-1.85-3.65-0.83-7.98-1.2-11.86
		c0.13-16.94-0.18-33.89,0.14-50.82c0.28-0.26,0.84-0.78,1.11-1.04c26.91-0.4,53.83,0.02,80.74-0.19
		c0.03-8.98,0.15-17.96-0.02-26.93c-20.97-0.17-41.95,0.13-62.92-0.09C318.47,252.47,318.46,232.5,318.54,212.54z"/>
	<path class="st0" d="M201.53,379.58c4.94,4.09,10.53,11.24,9.67,18.61c-3.54,8.03-12.3,15.03-21.44,13.03
		c-5.2-2.94-8.82-8.04-12.3-12.74C183.93,390.82,193.39,385.62,201.53,379.58z"/>
	<path class="st0" d="M478.84,386.82c11.06-2.46,24.32,7.77,21.61,19.63c-1.61,4.39-5.27,7.55-9.32,9.67
		c-9.45,2.58-18.43-5.49-21.3-13.93C468.62,395.43,473.4,389.95,478.84,386.82z"/>
	<path class="st0" d="M371.6,454.54c3.82,5,8.14,10.9,10.94,16.77c-5.36,0.68-10.64,1.96-16.06,2.2
		C368.4,467.26,369.05,460.52,371.6,454.54z"/>
</g>
<g>
	<g>
		<path class="st1" d="M330.84,59.08c65.12-4.42,130.73,22.46,176.19,68.87c25.52,26.61,45.01,59.15,55.45,94.55
			c8.93,31.18,12.01,64.21,7.57,96.36c-4.62,34.43-17.71,67.53-36.56,96.64c-4.75,7.75-11.25,14.18-16.2,21.79
			c-3.85,3.84-8.05,7.39-11.05,11.97c-4.19,3.1-7.85,6.78-11.51,10.47c-38.79,34.55-89.7,55.04-141.56,57.32
			c-32.55,1.5-65.69-3.69-95.85-16.24c-29.88-11.21-55.96-30.39-78.82-52.31c-30.94-32.06-52.65-73.12-61.21-116.93
			c-3.24-20.08-4.73-40.48-3.48-60.79c2.72-41.39,18.03-81.39,41.57-115.39C195.31,98.9,261.53,61.88,330.84,59.08z M324.84,64.04
			c-23.97,2.07-47.79,7.49-70,16.92c-25.74,11.01-49.3,27.03-69.6,46.28c-36.81,36.1-60.99,84.93-66.52,136.32
			c-5.71,55.89,9.22,114.31,43.74,158.97c30.43,41.13,75.64,71.3,125.4,83.44c70.8,18.37,150.51-1.17,204.37-50.75
			c5.84-4.45,11.14-9.57,15.54-15.46c27.34-28.53,45.52-65.2,54.23-103.61c3.29-13.62,5.4-27.6,4.51-41.65
			c3.03-58.33-19.58-117.08-59.65-159.31c-5.55-8.12-14.1-13.27-21.16-19.89C441.75,77.8,382.42,59.28,324.84,64.04z"/>
	</g>
	<path class="st1" d="M327.71,85.63c3.64-0.84,3.65,5.72,4.21,7.53c1.01,10.79,3.12,21.5,3.58,32.34
		c-6.77,0.94-9.33-6.64-13.94-10.06c-5.53-5.81-10.96-11.82-17-17.12c0.01,10.53,2.79,20.8,3.97,31.18
		c-1.83,0.03-4.8,0.56-4.94-2.06c-1.43-12.31-3.72-24.52-5.05-36.82c4.65-3.11,7.63,2.48,10.25,5.61
		c7.89,6.57,14.26,14.41,21.69,21.39c-0.92-10.34-3.51-20.57-3.85-30.92C326.9,86.43,327.44,85.9,327.71,85.63z"/>
	<g>
		<path class="st1" d="M374.7,88.59c2.11,0.47,5.16,0.48,5.37,3.24c2.87,13.28,6.94,26.31,9.49,39.65
			c-7.99,3.25-5.22-6.73-7.27-10.75c-6.88-1.2-13.7-2.93-20.7-3.21c-3.96,2.05-3.18,11.37-10.19,7.95c0.76-3.69,3.59-6.51,5.32-9.75
			C362.88,106.78,368.82,97.7,374.7,88.59z M375.64,95.8c-2.9,4.67-5.96,9.23-9.13,13.7c-0.9,1.1-1.14,2.49-1.02,3.87
			c5.04,0.51,9.97,2.03,15.06,2.15c-0.74-6.83-3.64-13.26-4.26-20.12L375.64,95.8z"/>
	</g>
	<path class="st1" d="M413.7,98.63c2.28,0.08,4.26,1.68,6.41,2.38c7.55,4.3,15.95,7.01,23.3,11.67c0.52,1.64-1.18,2.57-2.08,3.61
		c-4.58-0.73-7.86-5.55-12.68-4.73c-4.99,9.82-9.06,20.16-14.24,29.92c-1.62-0.02-3.71,0.52-4.71-1.13c0.6-2.9,2.14-5.43,3.73-7.89
		c3.57-7.7,7.25-15.36,11.01-22.97c-1.69-3.3-6.79-4.19-9.92-6.01C411.57,103.56,412,99.68,413.7,98.63z"/>
	<path class="st1" d="M237.79,114.8c0.37-0.03,1.11-0.09,1.48-0.12c4.2,4.29,6.96,9.68,10.68,14.34c4.07,5.75,8.26,13.03,5.2,20.19
		c-3.02,5.11-8.06,9.5-13.98,10.89c-5.65,2.42-10.05-2.18-13.99-5.28c-5.32-6.47-10.2-13.32-14.66-20.42
		c-0.86-2.42,2.95-4.12,4.16-2.05c6.01,7.8,10.14,17.98,19.12,22.89c7.92,1.58,16.76-5.3,15.67-13.67
		c-3.26-7.6-8.38-14.2-13.23-20.81C236.55,119.14,233.72,115.21,237.79,114.8z"/>
	<path class="st1" d="M463.71,127.63c1.65-0.47,3.17,0.51,4.68,1.03c-2.16,5.88-7.17,9.97-10.78,14.92
		c-4.05,5.63-8.56,10.91-12.5,16.61c-1.72,0.79-6.16-0.66-3.97-3.02C448.59,147.27,456.21,137.49,463.71,127.63z"/>
	<g>
		<path class="st1" d="M327.84,149.05c38.68-4.6,78.73,8.52,107.61,34.49c32.21,27.59,48.98,70.91,47.02,112.98
			c-3.05,40.33-23.25,79.79-56.35,103.56c-41.33,31.3-100.73,36.83-146.7,12.54c-13.21-5.89-24.5-15.32-34.92-25.12
			c-28.63-27.65-43.92-68.08-41.7-107.72c1.79-27.02,11.15-53.75,27.72-75.27C253.02,173.38,289.58,152.74,327.84,149.05z
			 M336.84,155.03c-14.06,1.09-28.3,2.81-41.34,8.47c-50.14,18.24-86.75,69.35-86.05,123c-1.15,45.19,23.01,89.92,61.33,113.71
			c46.74,31.21,113.28,26.92,156.02-9.37c36.09-29.01,55.13-77.91,47.08-123.68c-4.57-30.71-20.66-59.65-44.43-79.62
			C404.51,165.21,370.22,153.13,336.84,155.03z"/>
	</g>
	<g>
		<path class="st1" d="M484.84,154.95c9.56-1.74,17.94,7.26,20.29,15.88c2.21,15.03-15.53,28.43-29.56,22.59
			c-7.82-3.8-12.37-13.11-10.76-21.65C468.08,163.25,475.67,156.32,484.84,154.95z M485.78,159.79
			c-7.25,1.03-13.63,7.03-16.26,13.78c-0.03,4.96,0.64,10.74,5.15,13.76c11.15,9.99,31.66-7.23,23.84-19.84
			C496.78,162.34,491,159.07,485.78,159.79z"/>
	</g>
	<g>
		<path class="st1" d="M192.79,159.8c8.18-0.52,15.28,5.2,20.47,10.94c5.2,5.67,4.04,14.39-0.46,20.04
			c-3.42,3.98-6.11,8.57-9.52,12.56c-0.37-0.03-1.11-0.1-1.48-0.14c-8.87-7.54-18.41-14.23-27.7-21.23
			c-0.91-0.85-3.51-1.52-2.26-3.15C177.8,171.76,182.16,160.33,192.79,159.8z M190.81,164.77c-6.16,2.63-9.22,8.9-13.42,13.7
			c7.86,6.16,15.84,12.45,24.17,18.04c0.43-0.04,1.28-0.12,1.71-0.16c4.29-5.6,10.16-11.84,7.96-19.55
			c-1.69-3.82-4.91-6.53-8.35-8.73C199.29,165.78,195.38,163,190.81,164.77z"/>
	</g>
	<g>
		<path class="st1" d="M337.84,164.08c36.15-2.49,72.48,13.84,96.68,40.4c33.01,35.39,42.06,91.31,20.97,135.02
			c-3.78,7.11-6.41,14.96-12.18,20.81c-12.98,19.46-32.61,34.06-54.12,42.85c-13.45,6-28.19,7.74-42.68,9.31
			c-31.57,0.52-63.6-10.57-86.84-32.13c-22.85-19.41-37.05-48.1-40.39-77.76c-3.82-26.74,2.68-54.1,15.92-77.37
			c5.08-7.81,10.71-15.25,16.72-22.34C274.04,179.43,305.56,164.87,337.84,164.08z M282.74,194.6c-0.28,0.29-0.83,0.85-1.1,1.14
			c-0.24,61.51-0.23,123.03,0,184.54c0.27,0.26,0.8,0.8,1.07,1.06c37.91,0.39,75.87,0.06,113.8,0.15c2.74,1.51,7.28-0.76,6.99-3.98
			c-0.05-13.6,0.17-27.2-0.14-40.79c-0.27-0.26-0.8-0.8-1.07-1.06c-24.55-0.48-49.14,0.06-73.7-0.2c0.19-5.34-1.3-10.74-0.34-16
			c-2.43,0.02-7.28,0.05-9.71,0.07c-0.11,8.3-0.1,16.62,0,24.93c24.97,0.14,49.94-0.06,74.91,0.07c0.16,8.97,0.05,17.94,0.02,26.92
			c-33.98,0.1-67.96,0.06-101.93,0.02c-0.18-58.58,0.16-117.17-0.17-175.75C288.74,194.33,285.69,193.92,282.74,194.6z
			 M300.72,194.64c-0.26,0.27-0.8,0.8-1.06,1.07c-0.4,29.58-0.05,59.2-0.15,88.8c-1.57,2.75,0.78,7.28,3.98,6.98
			c22.26-0.06,44.53,0.19,66.79-0.13c2.91-2.23-0.07-7.06,1.2-9.81c-20.64-0.18-41.29,0.07-61.93-0.08
			c-0.11-25.64-0.06-51.27-0.02-76.91c27.64-0.14,55.29-0.06,82.93-0.03c0.11,8.64,0.08,17.29,0,25.93
			c-18.32,0.16-36.63-0.08-54.94,0.08c0,2.47,0,7.42,0,9.89c21.31,0.18,42.63,0.05,63.94,0.04c0.08-15.31,0.06-30.62,0.01-45.93
			C367.89,194.54,334.3,194.34,300.72,194.64z M318.54,212.54c-0.08,19.96-0.07,39.93-0.01,59.9c20.97,0.22,41.95-0.08,62.92,0.09
			c0.17,8.97,0.05,17.95,0.02,26.93c-26.91,0.21-53.83-0.21-80.74,0.19c-0.27,0.26-0.83,0.78-1.11,1.04
			c-0.32,16.93-0.01,33.88-0.14,50.82c0.37,3.88-0.65,8.21,1.2,11.86c17.94-0.02,35.98,0.84,53.89-0.59
			c9.53,1.08,19.12,0.84,28.7,0.58c2.16-2.35,3.07-10.32-1.76-9.86c-23.98-0.06-47.96,0.08-71.94-0.03
			c-0.21-14.64-0.04-29.29-0.04-43.93c26.98-0.14,53.95,0.05,80.93-0.07c0.08-15.31,0.07-30.62,0.01-45.92
			c-20.59-0.24-41.18,0.19-61.76-0.18c-2.27-3.9-0.77-8.64-1.23-12.87c0.35-8.68-0.8-17.52,0.81-26.09c0.05-2.54,3.21-2.9,5.19-2.93
			c15.93,0.42,31.95-0.88,47.82,0.84c2.88-2.21-0.1-7.04,1.18-9.75C361.17,212.4,339.85,212.51,318.54,212.54z"/>
	</g>
	<path class="st1" d="M522.81,202.88c2.56-1.51,5.73,0.55,4.67,3.56c-6.28,10.93-13.98,21.06-19.93,32.17
		c9.01-3.27,18.15-6.31,27-10.01c2.55-0.98,2.06,2.24,2.72,3.79c-9.42,5.09-20.17,7.42-29.92,11.9c-2.51,0.88-4.85,2.84-7.66,2.1
		c-0.45-1.26-1.23-2.46-1.2-3.83c6.62-10.74,14.16-20.94,20.01-32.12c-9.22,2.75-18.19,6.3-27.1,9.91
		c-2.78,0.99-2.09-3.03-2.88-4.68C500.03,211.63,511.47,207.37,522.81,202.88z"/>
	<path class="st1" d="M157.7,206.67c4.64-1.89,2.73,4.03,1.59,6.66c-1.58,5.7-5.21,11.02-5.7,16.96c4.05,1.52,8.27,3.72,12.71,3.1
		c1.96-4.88,3.24-10,5.06-14.92c-1.27-5.17,2.75-3.81,5.17-3.96c0.18,7.74-5.63,14.26-5.93,21.77c3.95,1.22,7.62,3.36,11.69,4.16
		c2.62-7.69,5.62-15.24,8.44-22.86c1.31-0.04,2.47,0.7,3.69,1.11c-2.16,9.15-6.23,17.76-9.13,26.7c-2.77,0.52-5.31-0.97-7.88-1.75
		c-9.4-3.96-19.5-6.11-28.77-10.42c0.1-8.35,5.28-15.59,7.01-23.65C155.75,208.3,156.97,207.58,157.7,206.67z"/>
	<path class="st1" d="M500.71,329.63c11.82,4.04,23.7,8.78,35.5,13.16c1.84,0.62,1.89,3.82-0.02,4.38
		c-11.06,4.81-22.94,7.18-34.48,10.55c-0.3,0.39-0.9,1.18-1.21,1.57c8.68,2.88,17.03,6.63,25.69,9.58c2.08,0.59,1.12,3.05,1.3,4.65
		c-2.57,0.28-4.94-0.79-7.29-1.65c-10.21-3.82-20.58-7.23-30.57-11.62c-1.01-2.85,2-4.46,4.14-5.46c11.15-2.49,21.84-6.44,32.8-9.57
		c-1.08-1.77-3.17-2.22-4.98-2.89c-7.35-2.63-14.69-5.23-21.97-8.05C499.47,332.67,499.02,330.59,500.71,329.63z"/>
	<path class="st1" d="M181.8,330.87c0.64-0.08,1.91-0.25,2.55-0.34c3.6,7.43,5.63,15.55,8.94,23.12c0.75,2,0.22,5.46-2.63,4.79
		c-3.58-6.92-5.54-14.59-8.39-21.84c-4.64-0.73-8.4,2.24-12.69,3.18c1.15,7.38,6.08,14.11,6.97,21.71c-1.3,0.07-2.6,0.04-3.9-0.08
		c-1.83-3.07-2.36-6.76-4.01-9.95c-1.8-2.5-0.55-9.53-5.14-8.96c-3.72,0.94-7.62,1.96-10.86,4.1c2.65,6.96,5.43,13.88,7.73,20.96
		c1.03,2.45-3.4,3.73-4.09,1.2c-3.15-8.24-6.37-16.64-8.83-25.18C158.45,338.28,170.31,334.95,181.8,330.87z"/>
	<g>
		<path class="st1" d="M200.81,373.81c2.66-1.63,4.4,2.2,5.63,3.74c4.38,6.07,10.72,12.47,9.66,20.62
			c-1.58,6.17-5.95,11.46-11.63,14.32c-4.29,3.61-10.29,4.78-15.71,3.74c-7.26-4.6-12.34-11.94-17.27-18.78
			c0.06-0.41,0.19-1.23,0.25-1.64C181.5,388.58,191.24,381.3,200.81,373.81z M201.53,379.58c-8.14,6.04-17.6,11.24-24.07,18.9
			c3.48,4.7,7.1,9.8,12.3,12.74c9.14,2,17.9-5,21.44-13.03C212.06,390.82,206.47,383.67,201.53,379.58z"/>
	</g>
	<g>
		<path class="st1" d="M477.8,381.78c14.75-3.47,31.29,11.12,27.4,26.41c-1.88,4.47-5.44,7.84-9.01,10.99
			c-13.58,7.6-32.23-5.58-31.58-20.62C466.45,391.36,470.65,384.69,477.8,381.78z M478.84,386.82c-5.44,3.13-10.22,8.61-9.01,15.37
			c2.87,8.44,11.85,16.51,21.3,13.93c4.05-2.12,7.71-5.28,9.32-9.67C503.16,394.59,489.9,384.36,478.84,386.82z"/>
	</g>
	<path class="st1" d="M233.72,411.63c1.5-0.47,3.73-0.05,3.77,1.87c-4.39,9.53-14.29,16.24-15.99,27c0.89,6.35,6.92,10.98,13,12
		c6.93-0.67,10.79-7.44,14.63-12.34c2.94-4.15,6.1-8.15,8.55-12.62c1.83-0.16,2.68,1.94,3.89,2.97
		c-4.09,5.93-8.33,11.75-12.31,17.76c-4.09,3.82-8.26,10.01-14.75,8.24c-3.86,1.04-6.83-1.44-9.78-3.26
		c-3.28-3.61-8.76-6.86-7.25-12.76c-1.47-4.42,1.54-7.93,3.67-11.29C225.01,423.1,229.66,417.57,233.72,411.63z"/>
	<path class="st1" d="M442.71,416.62c4.42-1.13,5.64,5.02,8.52,7.14c5.6,7.72,12.14,14.72,17.31,22.75
		c-0.63,1.34-2.07,3.46-3.83,2.83c-6.64-7.18-11.65-15.65-18.09-22.99C445.33,423.55,438.92,419.87,442.71,416.62z"/>
	<path class="st1" d="M424.81,428.87c2.31-1.48,4.53,1.12,3.57,3.41c-3.94,1.77-7.82,3.66-11.72,5.51c-0.8,2.96,2.28,4.93,3.03,7.56
		c3.13,7.95,7.84,15.21,10.71,23.22c1.25,3.1-4.94,4.56-4.89,0.91c-4.2-9.73-8.96-19.23-13.3-28.84c-4.67-1.08-7.54,4.05-12,4.53
		c-2.35,1.36-3.81-2.87-2-3.96C406.97,436.88,415.95,433.11,424.81,428.87z"/>
	<path class="st1" d="M303.73,447.56l4.45,0.15c5.48,9.86,10.97,19.71,16.62,29.48c0.85,1.32,0.25,3.97,2.62,3.32
		c0.86-8.35,2.08-16.64,3.25-24.94c0.52-1.73,0.77-3.62,2-5.02c1.27-0.09,2.38,0.67,3.54,1.1c-1.08,6.83-1.43,13.77-3.09,20.51
		c-1.24,6-0.44,12.49-2.79,18.24c-1.78-0.05-4.63,1.04-4.86-1.9c-5.75-10.64-12.06-21.02-17.25-31.94c-2.19,1.05-2.8,3.03-1.85,5.95
		c-0.78,8.01-2.26,15.94-3.02,23.96l-4.87,0.03C299.01,473.4,301.67,460.48,303.73,447.56z"/>
	<g>
		<path class="st1" d="M368.69,447.58c5.72-3.05,5.87,3.63,8.42,6.27c6.33,9.91,13.18,19.49,19.33,29.5
			c-1.14,1.48-3.13,1.26-4.76,1.03c-2.3-2.56-3.72-5.75-5.5-8.65c-5.03-0.54-10.04,1.69-15.02,2.25
			c-11.23-3.56-3.85,15.03-13.67,12.51c3.24-13.99,6.72-27.82,10.31-41.71C368.02,448.48,368.47,447.88,368.69,447.58z
			 M371.6,454.54c-2.55,5.98-3.2,12.72-5.12,18.97c5.42-0.24,10.7-1.52,16.06-2.2C379.74,465.44,375.42,459.54,371.6,454.54z"/>
	</g>
</g>
</svg>
