<?xml version="1.0" encoding="utf-8"?>
<!-- Generator: Adobe Illustrator 27.1.0, SVG Export Plug-In . SVG Version: 6.00 Build 0)  -->
<svg version="1.1" id="Layer_1" xmlns="http://www.w3.org/2000/svg" xmlns:xlink="http://www.w3.org/1999/xlink" x="0px" y="0px"
	 viewBox="0 0 621 605" style="enable-background:new 0 0 621 605;" xml:space="preserve">
<style type="text/css">
	.st0{fill:#FC5198;}
</style>
<g>
	<g>
		<path class="st0" d="M293.9,7.6C376.8,2,460.3,36.2,518.2,95.3c32.5,33.9,57.3,75.3,70.6,120.4c11.4,39.7,15.3,81.8,9.6,122.7
			c-5.9,43.8-22.5,86-46.5,123c-6,9.9-14.3,18.1-20.6,27.7c-4.9,4.9-10.2,9.4-14.1,15.2c-5.3,3.9-10,8.6-14.7,13.3
			c-49.4,44-114.2,70.1-180.2,73c-41.4,1.9-83.6-4.7-122-20.7c-38-14.3-71.2-38.7-100.4-66.6c-39.4-40.8-67-93.1-77.9-148.9
			c-4.1-25.6-6-51.5-4.4-77.4c3.5-52.7,23-103.6,52.9-146.9C121.4,58.3,205.7,11.2,293.9,7.6z M286.3,13.9
			c-30.5,2.6-60.8,9.5-89.1,21.5c-32.8,14-62.8,34.4-88.6,58.9c-46.9,46-77.7,108.1-84.7,173.6c-7.3,71.2,11.7,145.5,55.7,202.4
			c38.7,52.4,96.3,90.8,159.7,106.2c90.1,23.4,191.6-1.5,260.2-64.6c7.4-5.7,14.2-12.2,19.8-19.7c34.8-36.3,58-83,69-131.9
			c4.2-17.3,6.9-35.1,5.7-53c3.9-74.3-24.9-149.1-75.9-202.8c-7.1-10.3-18-16.9-26.9-25.3C435.1,31.4,359.6,7.9,286.3,13.9z"/>
	</g>
	<path class="st0" d="M289.9,41.4c4.6-1.1,4.6,7.3,5.4,9.6c1.3,13.7,4,27.4,4.6,41.2c-8.6,1.2-11.9-8.5-17.7-12.8
		c-7-7.4-14-15-21.6-21.8c0,13.4,3.6,26.5,5.1,39.7c-2.3,0-6.1,0.7-6.3-2.6c-1.8-15.7-4.7-31.2-6.4-46.9c5.9-4,9.7,3.2,13.1,7.1
		c10,8.4,18.2,18.3,27.6,27.2c-1.2-13.2-4.5-26.2-4.9-39.4C288.9,42.4,289.6,41.7,289.9,41.4z"/>
	<g>
		<path class="st0" d="M349.7,45.2c2.7,0.6,6.6,0.6,6.8,4.1c3.7,16.9,8.8,33.5,12.1,50.5c-10.2,4.1-6.6-8.6-9.3-13.7
			c-8.8-1.5-17.4-3.7-26.4-4.1c-5,2.6-4,14.5-13,10.1c1-4.7,4.6-8.3,6.8-12.4C334.7,68.3,342.3,56.8,349.7,45.2z M350.9,54.4
			c-3.7,5.9-7.6,11.8-11.6,17.4c-1.1,1.4-1.5,3.2-1.3,4.9c6.4,0.6,12.7,2.6,19.2,2.7c-0.9-8.7-4.6-16.9-5.4-25.6L350.9,54.4z"/>
	</g>
	<path class="st0" d="M399.4,58c2.9,0.1,5.4,2.1,8.2,3c9.6,5.5,20.3,8.9,29.7,14.9c0.7,2.1-1.5,3.3-2.6,4.6c-5.8-0.9-10-7.1-16.1-6
		c-6.4,12.5-11.5,25.7-18.1,38.1c-2.1,0-4.7,0.7-6-1.4c0.8-3.7,2.7-6.9,4.7-10c4.5-9.8,9.2-19.6,14-29.2c-2.2-4.2-8.6-5.3-12.6-7.7
		C396.7,64.2,397.2,59.3,399.4,58z"/>
	<path class="st0" d="M175.4,78.5c0.5,0,1.4-0.1,1.9-0.2c5.3,5.5,8.9,12.3,13.6,18.3c5.2,7.3,10.5,16.6,6.6,25.7
		c-3.8,6.5-10.3,12.1-17.8,13.9c-7.2,3.1-12.8-2.8-17.8-6.7c-6.8-8.2-13-17-18.7-26c-1.1-3.1,3.8-5.2,5.3-2.6
		c7.7,9.9,12.9,22.9,24.3,29.1c10.1,2,21.3-6.7,20-17.4c-4.2-9.7-10.7-18.1-16.8-26.5C173.9,84.1,170.3,79.1,175.4,78.5z"/>
	<path class="st0" d="M463.1,94.9c2.1-0.6,4,0.6,6,1.3c-2.8,7.5-9.1,12.7-13.7,19c-5.2,7.2-10.9,13.9-15.9,21.1
		c-2.2,1-7.8-0.8-5.1-3.8C443.8,119.9,453.5,107.4,463.1,94.9z"/>
	<g>
		<path class="st0" d="M290.1,122.1c49.2-5.9,100.2,10.8,137,43.9c41,35.1,62.4,90.3,59.9,143.8c-3.9,51.3-29.6,101.6-71.7,131.9
			c-52.6,39.9-128.2,46.9-186.8,16c-16.8-7.5-31.2-19.5-44.5-32c-36.5-35.2-55.9-86.7-53.1-137.1c2.3-34.4,14.2-68.4,35.3-95.8
			C194.8,153.1,241.4,126.8,290.1,122.1z M301.5,129.8c-17.9,1.4-36,3.6-52.6,10.8c-63.8,23.2-110.4,88.3-109.6,156.6
			c-1.5,57.5,29.3,114.5,78.1,144.8c59.5,39.7,144.2,34.3,198.6-11.9c45.9-36.9,70.2-99.2,59.9-157.5
			c-5.8-39.1-26.3-75.9-56.6-101.4C387.7,142.7,344,127.3,301.5,129.8z"/>
	</g>
	<g>
		<path class="st0" d="M490,129.7c12.2-2.2,22.8,9.2,25.8,20.2c2.8,19.1-19.8,36.2-37.6,28.8c-10-4.8-15.7-16.7-13.7-27.6
			C468.6,140.2,478.3,131.4,490,129.7z M491.2,135.8c-9.2,1.3-17.4,9-20.7,17.5c0,6.3,0.8,13.7,6.6,17.5
			c14.2,12.7,40.3-9.2,30.4-25.3C505.2,139.1,497.8,134.9,491.2,135.8z"/>
	</g>
	<g>
		<path class="st0" d="M118.1,135.8c10.4-0.7,19.5,6.6,26.1,13.9c6.6,7.2,5.1,18.3-0.6,25.5c-4.4,5.1-7.8,10.9-12.1,16
			c-0.5,0-1.4-0.1-1.9-0.2c-11.3-9.6-23.4-18.1-35.3-27c-1.2-1.1-4.5-1.9-2.9-4C99.1,151.1,104.6,136.5,118.1,135.8z M115.6,142.2
			c-7.8,3.3-11.7,11.3-17.1,17.4c10,7.8,20.2,15.9,30.8,23c0.5-0.1,1.6-0.2,2.2-0.2c5.5-7.1,12.9-15.1,10.1-24.9
			c-2.2-4.9-6.3-8.3-10.6-11.1C126.4,143.4,121.4,139.9,115.6,142.2z"/>
	</g>
	<g>
		<path class="st0" d="M302.8,141.3c46-3.2,92.3,17.6,123.1,51.4c42,45.1,53.5,116.3,26.7,171.9c-4.8,9.1-8.2,19-15.5,26.5
			c-16.5,24.8-41.5,43.4-68.9,54.6c-17.1,7.6-35.9,9.9-54.3,11.9c-40.2,0.7-81-13.5-110.6-40.9c-29.1-24.7-47.2-61.2-51.4-99
			c-4.9-34,3.4-68.9,20.3-98.5c6.5-9.9,13.6-19.4,21.3-28.4C221.6,160.8,261.7,142.3,302.8,141.3z M232.7,180.1
			c-0.4,0.4-1.1,1.1-1.4,1.5c-0.3,78.3-0.3,156.6,0,235c0.3,0.3,1,1,1.4,1.3c48.3,0.5,96.6,0.1,144.9,0.2c3.5,1.9,9.3-1,8.9-5.1
			c-0.1-17.3,0.2-34.6-0.2-51.9c-0.3-0.3-1-1-1.4-1.3c-31.3-0.6-62.6,0.1-93.8-0.3c0.2-6.8-1.7-13.7-0.4-20.4
			c-3.1,0-9.3,0.1-12.4,0.1c-0.1,10.6-0.1,21.2,0,31.7c31.8,0.2,63.6-0.1,95.4,0.1c0.2,11.4,0.1,22.8,0,34.3
			c-43.3,0.1-86.5,0.1-129.8,0c-0.2-74.6,0.2-149.2-0.2-223.8C240.3,179.8,236.4,179.3,232.7,180.1z M255.6,180.2
			c-0.3,0.3-1,1-1.3,1.4c-0.5,37.7-0.1,75.4-0.2,113.1c-2,3.5,1,9.3,5.1,8.9c28.3-0.1,56.7,0.2,85-0.2c3.7-2.8-0.1-9,1.5-12.5
			c-26.3-0.2-52.6,0.1-78.8-0.1c-0.1-32.6-0.1-65.3,0-97.9c35.2-0.2,70.4-0.1,105.6,0c0.1,11,0.1,22,0,33
			c-23.3,0.2-46.6-0.1-69.9,0.1c0,3.1,0,9.4,0,12.6c27.1,0.2,54.3,0.1,81.4,0.1c0.1-19.5,0.1-39,0-58.5
			C341.1,180.1,298.3,179.8,255.6,180.2z M278.2,203c-0.1,25.4-0.1,50.8,0,76.3c26.7,0.3,53.4-0.1,80.1,0.1
			c0.2,11.4,0.1,22.9,0,34.3c-34.3,0.3-68.5-0.3-102.8,0.2c-0.3,0.3-1.1,1-1.4,1.3c-0.4,21.6,0,43.1-0.2,64.7
			c0.5,4.9-0.8,10.5,1.5,15.1c22.8,0,45.8,1.1,68.6-0.8c12.1,1.4,24.3,1.1,36.5,0.7c2.8-3,3.9-13.1-2.2-12.6
			c-30.5-0.1-61.1,0.1-91.6,0c-0.3-18.6-0.1-37.3-0.1-55.9c34.4-0.2,68.7,0.1,103-0.1c0.1-19.5,0.1-39,0-58.5
			c-26.2-0.3-52.4,0.2-78.6-0.2c-2.9-5-1-11-1.6-16.4c0.4-11.1-1-22.3,1-33.2c0.1-3.2,4.1-3.7,6.6-3.7c20.3,0.5,40.7-1.1,60.9,1.1
			c3.7-2.8-0.1-9,1.5-12.4C332.5,202.8,305.4,202.9,278.2,203z"/>
	</g>
	<path class="st0" d="M538.3,190.7c3.3-1.9,7.3,0.7,5.9,4.5c-8,13.9-17.8,26.8-25.4,41c11.5-4.2,23.1-8,34.4-12.7
		c3.2-1.2,2.6,2.9,3.5,4.8c-12,6.5-25.7,9.4-38.1,15.2c-3.2,1.1-6.2,3.6-9.8,2.7c-0.6-1.6-1.6-3.1-1.5-4.9
		c8.4-13.7,18-26.7,25.5-40.9c-11.7,3.5-23.2,8-34.5,12.6c-3.5,1.3-2.7-3.9-3.7-6C509.3,201.8,523.9,196.4,538.3,190.7z"/>
	<path class="st0" d="M73.5,195.5c5.9-2.4,3.5,5.1,2,8.5c-2,7.3-6.6,14-7.3,21.6c5.2,1.9,10.5,4.7,16.2,3.9c2.5-6.2,4.1-12.7,6.4-19
		c-1.6-6.6,3.5-4.9,6.6-5c0.2,9.9-7.2,18.2-7.5,27.7c5,1.6,9.7,4.3,14.9,5.3c3.3-9.8,7.2-19.4,10.7-29.1c1.7-0.1,3.1,0.9,4.7,1.4
		c-2.8,11.6-7.9,22.6-11.6,34c-3.5,0.7-6.8-1.2-10-2.2c-12-5-24.8-7.8-36.6-13.3c0.1-10.6,6.7-19.8,8.9-30.1
		C71,197.6,72.5,196.7,73.5,195.5z"/>
	<path class="st0" d="M510.2,352.1c15,5.1,30.2,11.2,45.2,16.8c2.3,0.8,2.4,4.9,0,5.6c-14.1,6.1-29.2,9.1-43.9,13.4
		c-0.4,0.5-1.1,1.5-1.5,2c11.1,3.7,21.7,8.4,32.7,12.2c2.6,0.8,1.4,3.9,1.7,5.9c-3.3,0.4-6.3-1-9.3-2.1c-13-4.9-26.2-9.2-38.9-14.8
		c-1.3-3.6,2.5-5.7,5.3-7c14.2-3.2,27.8-8.2,41.8-12.2c-1.4-2.3-4-2.8-6.3-3.7c-9.4-3.3-18.7-6.7-28-10.2
		C508.6,355.9,508,353.3,510.2,352.1z"/>
	<path class="st0" d="M104.1,353.6c0.8-0.1,2.4-0.3,3.2-0.4c4.6,9.5,7.2,19.8,11.4,29.4c1,2.5,0.3,7-3.3,6.1
		c-4.6-8.8-7.1-18.6-10.7-27.8c-5.9-0.9-10.7,2.9-16.2,4c1.5,9.4,7.7,18,8.9,27.6c-1.7,0.1-3.3,0.1-5-0.1c-2.3-3.9-3-8.6-5.1-12.7
		c-2.3-3.2-0.7-12.1-6.5-11.4c-4.7,1.2-9.7,2.5-13.8,5.2c3.4,8.9,6.9,17.7,9.8,26.7c1.3,3.1-4.3,4.7-5.2,1.5
		c-4-10.5-8.1-21.2-11.2-32.1C74.4,363.1,89.5,358.8,104.1,353.6z"/>
	<g>
		<path class="st0" d="M128.4,408.3c3.4-2.1,5.6,2.8,7.2,4.8c5.6,7.7,13.6,15.9,12.3,26.3c-2,7.9-7.6,14.6-14.8,18.2
			c-5.5,4.6-13.1,6.1-20,4.8c-9.2-5.9-15.7-15.2-22-23.9c0.1-0.5,0.2-1.6,0.3-2.1C103.8,427.1,116.2,417.8,128.4,408.3z
			 M129.3,415.7c-10.4,7.7-22.4,14.3-30.6,24.1c4.4,6,9,12.5,15.7,16.2c11.6,2.5,22.8-6.4,27.3-16.6
			C142.7,430,135.6,420.9,129.3,415.7z"/>
	</g>
	<g>
		<path class="st0" d="M481,418.5c18.8-4.4,39.8,14.2,34.9,33.6c-2.4,5.7-6.9,10-11.5,14c-17.3,9.7-41-7.1-40.2-26.3
			C466.6,430.7,471.9,422.2,481,418.5z M482.3,424.9c-6.9,4-13,11-11.5,19.6c3.7,10.7,15.1,21,27.1,17.7c5.2-2.7,9.8-6.7,11.9-12.3
			C513.3,434.8,496.4,421.7,482.3,424.9z"/>
	</g>
	<path class="st0" d="M170.3,456.5c1.9-0.6,4.7-0.1,4.8,2.4c-5.6,12.1-18.2,20.7-20.4,34.4c1.1,8.1,8.8,14,16.6,15.3
		c8.8-0.9,13.7-9.5,18.6-15.7c3.7-5.3,7.8-10.4,10.9-16.1c2.3-0.2,3.4,2.5,5,3.8c-5.2,7.5-10.6,15-15.7,22.6
		c-5.2,4.9-10.5,12.7-18.8,10.5c-4.9,1.3-8.7-1.8-12.5-4.2c-4.2-4.6-11.2-8.7-9.2-16.2c-1.9-5.6,2-10.1,4.7-14.4
		C159.2,471.1,165.1,464,170.3,456.5z"/>
	<path class="st0" d="M436.3,462.8c5.6-1.4,7.2,6.4,10.8,9.1c7.1,9.8,15.5,18.7,22,29c-0.8,1.7-2.6,4.4-4.9,3.6
		c-8.5-9.1-14.8-19.9-23-29.3C439.7,471.6,431.5,467,436.3,462.8z"/>
	<path class="st0" d="M413.5,478.4c2.9-1.9,5.8,1.4,4.5,4.3c-5,2.3-10,4.7-14.9,7c-1,3.8,2.9,6.3,3.9,9.6c4,10.1,10,19.4,13.6,29.6
		c1.6,3.9-6.3,5.8-6.2,1.2c-5.3-12.4-11.4-24.5-16.9-36.7c-5.9-1.4-9.6,5.2-15.3,5.8c-3,1.7-4.9-3.7-2.5-5
		C390.8,488.6,402.3,483.8,413.5,478.4z"/>
	<path class="st0" d="M259.4,502.2l5.7,0.2c7,12.6,14,25.1,21.2,37.5c1.1,1.7,0.3,5.1,3.3,4.2c1.1-10.6,2.6-21.2,4.1-31.8
		c0.7-2.2,1-4.6,2.5-6.4c1.6-0.1,3,0.9,4.5,1.4c-1.4,8.7-1.8,17.5-3.9,26.1c-1.6,7.6-0.6,15.9-3.6,23.2c-2.3-0.1-5.9,1.3-6.2-2.4
		c-7.3-13.5-15.4-26.8-22-40.7c-2.8,1.3-3.6,3.9-2.4,7.6c-1,10.2-2.9,20.3-3.8,30.5l-6.2,0C253.4,535.1,256.8,518.7,259.4,502.2z"/>
	<g>
		<path class="st0" d="M342.1,502.2c7.3-3.9,7.5,4.6,10.7,8c8.1,12.6,16.8,24.8,24.6,37.6c-1.5,1.9-4,1.6-6.1,1.3
			c-2.9-3.3-4.7-7.3-7-11c-6.4-0.7-12.8,2.2-19.1,2.9c-14.3-4.5-4.9,19.1-17.4,15.9c4.1-17.8,8.6-35.4,13.1-53.1
			C341.2,503.4,341.8,502.6,342.1,502.2z M345.8,511.1c-3.2,7.6-4.1,16.2-6.5,24.2c6.9-0.3,13.6-1.9,20.4-2.8
			C356.2,525,350.7,517.5,345.8,511.1z"/>
	</g>
</g>
</svg>
