<?xml version="1.0" encoding="utf-8"?>
<!-- Generator: Adobe Illustrator 27.1.0, SVG Export Plug-In . SVG Version: 6.00 Build 0)  -->
<svg version="1.1" id="Layer_1" xmlns="http://www.w3.org/2000/svg" xmlns:xlink="http://www.w3.org/1999/xlink" x="0px" y="0px"
	 viewBox="0 0 1216 634" style="enable-background:new 0 0 1216 634;" xml:space="preserve">
<style type="text/css">
	.st0{fill:#322139;}
	.st1{fill:#FC5198;}
	.st2{fill:#F0F8FF;}
</style>
<rect x="-3" class="st0" width="1222" height="639"/>
<g>
	<g>
		<path class="st1" d="M600.9,96.3c38-2.6,76.2,13.1,102.7,40.1c14.9,15.5,26.2,34.5,32.3,55.1c5.2,18.2,7,37.4,4.4,56.2
			c-2.7,20.1-10.3,39.4-21.3,56.3c-2.8,4.5-6.6,8.3-9.4,12.7c-2.2,2.2-4.7,4.3-6.4,7c-2.4,1.8-4.6,4-6.7,6.1
			c-22.6,20.1-52.3,32.1-82.5,33.4c-19,0.9-38.3-2.1-55.9-9.5c-17.4-6.5-32.6-17.7-45.9-30.5c-18-18.7-30.7-42.6-35.7-68.2
			c-1.9-11.7-2.8-23.6-2-35.4c1.6-24.1,10.5-47.4,24.2-67.3C521.9,119.5,560.5,97.9,600.9,96.3z M597.4,99.2
			c-14,1.2-27.9,4.4-40.8,9.9c-15,6.4-28.7,15.8-40.6,27c-21.5,21-35.5,49.5-38.8,79.5c-3.3,32.6,5.4,66.6,25.5,92.7
			c17.7,24,44.1,41.6,73.1,48.6c41.3,10.7,87.7-0.7,119.1-29.6c3.4-2.6,6.5-5.6,9.1-9c15.9-16.6,26.5-38,31.6-60.4
			c1.9-7.9,3.2-16.1,2.6-24.3c1.8-34-11.4-68.2-34.8-92.9c-3.2-4.7-8.2-7.7-12.3-11.6C665.5,107.2,630.9,96.4,597.4,99.2z"/>
	</g>
	<path class="st1" d="M599,111.8c2.1-0.5,2.1,3.3,2.5,4.4c0.6,6.3,1.8,12.5,2.1,18.9c-4,0.6-5.4-3.9-8.1-5.9
		c-3.2-3.4-6.4-6.9-9.9-10c0,6.1,1.6,12.1,2.3,18.2c-1.1,0-2.8,0.3-2.9-1.2c-0.8-7.2-2.2-14.3-2.9-21.5c2.7-1.8,4.5,1.4,6,3.3
		c4.6,3.8,8.3,8.4,12.6,12.5c-0.5-6-2-12-2.2-18C598.6,112.2,598.9,111.9,599,111.8z"/>
	<g>
		<path class="st1" d="M626.4,113.5c1.2,0.3,3,0.3,3.1,1.9c1.7,7.7,4,15.3,5.5,23.1c-4.7,1.9-3-3.9-4.2-6.3c-4-0.7-8-1.7-12.1-1.9
			c-2.3,1.2-1.8,6.6-5.9,4.6c0.4-2.1,2.1-3.8,3.1-5.7C619.5,124.1,623,118.8,626.4,113.5z M627,117.7c-1.7,2.7-3.5,5.4-5.3,8
			c-0.5,0.6-0.7,1.4-0.6,2.3c2.9,0.3,5.8,1.2,8.8,1.2c-0.4-4-2.1-7.7-2.5-11.7L627,117.7z"/>
	</g>
	<path class="st1" d="M649.2,119.3c1.3,0.1,2.5,1,3.7,1.4c4.4,2.5,9.3,4.1,13.6,6.8c0.3,1-0.7,1.5-1.2,2.1c-2.7-0.4-4.6-3.2-7.4-2.8
		c-2.9,5.7-5.3,11.8-8.3,17.4c-0.9,0-2.2,0.3-2.8-0.7c0.3-1.7,1.2-3.2,2.2-4.6c2.1-4.5,4.2-8.9,6.4-13.4c-1-1.9-4-2.4-5.8-3.5
		C647.9,122.2,648.2,119.9,649.2,119.3z"/>
	<path class="st1" d="M546.6,128.8c0.2,0,0.7-0.1,0.9-0.1c2.5,2.5,4.1,5.6,6.2,8.4c2.4,3.4,4.8,7.6,3,11.8c-1.8,3-4.7,5.5-8.2,6.4
		c-3.3,1.4-5.9-1.3-8.2-3.1c-3.1-3.8-6-7.8-8.5-11.9c-0.5-1.4,1.7-2.4,2.4-1.2c3.5,4.6,5.9,10.5,11.1,13.3c4.6,0.9,9.8-3.1,9.1-8
		c-1.9-4.4-4.9-8.3-7.7-12.1C545.9,131.3,544.2,129,546.6,128.8z"/>
	<path class="st1" d="M678.3,136.2c1-0.3,1.8,0.3,2.7,0.6c-1.3,3.4-4.2,5.8-6.3,8.7c-2.4,3.3-5,6.4-7.3,9.7c-1,0.5-3.6-0.4-2.3-1.8
		C669.5,147.7,673.9,142,678.3,136.2z"/>
	<g>
		<path class="st1" d="M599.1,148.7c22.5-2.7,45.9,5,62.7,20.1c18.8,16.1,28.5,41.3,27.4,65.9c-1.8,23.5-13.5,46.5-32.8,60.4
			c-24.1,18.2-58.7,21.5-85.5,7.3c-7.7-3.4-14.3-8.9-20.3-14.6c-16.7-16.1-25.6-39.7-24.3-62.8c1-15.8,6.5-31.3,16.2-43.9
			C555.5,162.9,576.8,150.9,599.1,148.7z M604.3,152.2c-8.2,0.6-16.5,1.6-24.1,4.9c-29.2,10.6-50.6,40.4-50.2,71.7
			c-0.7,26.3,13.4,52.4,35.8,66.3c27.2,18.2,66,15.7,90.9-5.5c21-16.9,32.1-45.4,27.4-72.1c-2.7-17.9-12-34.8-25.9-46.4
			C643.8,158.1,623.8,151.1,604.3,152.2z"/>
	</g>
	<g>
		<path class="st1" d="M690.6,152.2c5.6-1,10.5,4.2,11.8,9.3c1.3,8.8-9,16.6-17.2,13.2c-4.6-2.2-7.2-7.6-6.3-12.6
			C680.8,157,685.3,152.9,690.6,152.2z M691.2,155c-4.2,0.6-7.9,4.1-9.5,8c0,2.9,0.4,6.3,3,8c6.5,5.8,18.5-4.2,13.9-11.6
			C697.6,156.5,694.2,154.6,691.2,155z"/>
	</g>
	<g>
		<path class="st1" d="M520.4,155c4.8-0.3,8.9,3,11.9,6.4c3,3.3,2.3,8.4-0.3,11.7c-2,2.3-3.6,5-5.5,7.3c-0.2,0-0.7-0.1-0.9-0.1
			c-5.2-4.4-10.7-8.3-16.1-12.4c-0.5-0.5-2-0.9-1.3-1.8C511.6,161.9,514.2,155.3,520.4,155z M519.2,157.9c-3.6,1.5-5.4,5.2-7.8,8
			c4.6,3.6,9.2,7.3,14.1,10.5c0.2,0,0.8-0.1,1-0.1c2.5-3.3,5.9-6.9,4.6-11.4c-1-2.2-2.9-3.8-4.9-5.1
			C524.2,158.5,521.9,156.9,519.2,157.9z"/>
	</g>
	<g>
		<path class="st1" d="M604.9,157.5c21.1-1.4,42.2,8.1,56.3,23.6c19.2,20.6,24.5,53.2,12.2,78.7c-2.2,4.1-3.7,8.7-7.1,12.1
			c-7.6,11.3-19,19.9-31.5,25c-7.8,3.5-16.4,4.5-24.9,5.4c-18.4,0.3-37.1-6.2-50.6-18.7c-13.3-11.3-21.6-28-23.5-45.3
			c-2.2-15.6,1.6-31.5,9.3-45.1c3-4.6,6.2-8.9,9.8-13C567.8,166.4,586.1,157.9,604.9,157.5z M572.8,175.3c-0.2,0.2-0.5,0.5-0.6,0.7
			c-0.1,35.8-0.1,71.7,0,107.6c0.2,0.1,0.5,0.5,0.6,0.6c22.1,0.2,44.2,0,66.3,0.1c1.6,0.9,4.2-0.4,4.1-2.3c0-7.9,0.1-15.9-0.1-23.8
			c-0.2-0.1-0.5-0.5-0.6-0.6c-14.3-0.3-28.6,0-43-0.1c0.1-3.1-0.8-6.3-0.2-9.3c-1.4,0-4.2,0-5.7,0c-0.1,4.8-0.1,9.7,0,14.5
			c14.5,0.1,29.1,0,43.7,0c0.1,5.2,0,10.5,0,15.7c-19.8,0.1-39.6,0-59.4,0c-0.1-34.1,0.1-68.3-0.1-102.4
			C576.3,175.1,574.5,174.9,572.8,175.3z M583.3,175.3c-0.2,0.2-0.5,0.5-0.6,0.6c-0.2,17.2,0,34.5-0.1,51.8
			c-0.9,1.6,0.5,4.2,2.3,4.1c13,0,26,0.1,38.9-0.1c1.7-1.3,0-4.1,0.7-5.7c-12-0.1-24.1,0-36.1-0.1c-0.1-14.9,0-29.9,0-44.8
			c16.1-0.1,32.2,0,48.3,0c0.1,5,0,10.1,0,15.1c-10.7,0.1-21.3-0.1-32,0.1c0,1.4,0,4.3,0,5.8c12.4,0.1,24.8,0,37.3,0
			c0-8.9,0-17.9,0-26.8C622.5,175.2,602.9,175.1,583.3,175.3z M593.7,185.7c0,11.6,0,23.3,0,34.9c12.2,0.1,24.5-0.1,36.7,0.1
			c0.1,5.2,0,10.5,0,15.7c-15.7,0.1-31.4-0.1-47.1,0.1c-0.2,0.1-0.5,0.4-0.7,0.6c-0.2,9.9,0,19.8-0.1,29.6c0.2,2.3-0.4,4.8,0.7,6.9
			c10.5,0,21,0.5,31.4-0.3c5.5,0.6,11.1,0.5,16.7,0.3c1.3-1.4,1.8-6-1-5.8c-14,0-28,0-41.9,0c-0.1-8.5,0-17.1,0-25.6
			c15.7-0.1,31.5,0,47.2,0c0-8.9,0-17.9,0-26.8c-12-0.1-24,0.1-36-0.1c-1.3-2.3-0.5-5-0.7-7.5c0.2-5.1-0.5-10.2,0.5-15.2
			c0-1.5,1.9-1.7,3-1.7c9.3,0.2,18.6-0.5,27.9,0.5c1.7-1.3-0.1-4.1,0.7-5.7C618.5,185.6,606.1,185.7,593.7,185.7z"/>
	</g>
	<path class="st1" d="M712.8,180.1c1.5-0.9,3.3,0.3,2.7,2.1c-3.7,6.4-8.2,12.3-11.6,18.8c5.2-1.9,10.6-3.7,15.7-5.8
		c1.5-0.6,1.2,1.3,1.6,2.2c-5.5,3-11.8,4.3-17.4,6.9c-1.5,0.5-2.8,1.7-4.5,1.2c-0.3-0.7-0.7-1.4-0.7-2.2c3.9-6.3,8.2-12.2,11.7-18.7
		c-5.4,1.6-10.6,3.7-15.8,5.8c-1.6,0.6-1.2-1.8-1.7-2.7C699.5,185.2,706.1,182.7,712.8,180.1z"/>
	<path class="st1" d="M499.9,182.3c2.7-1.1,1.6,2.4,0.9,3.9c-0.9,3.3-3,6.4-3.3,9.9c2.4,0.9,4.8,2.2,7.4,1.8c1.1-2.8,1.9-5.8,3-8.7
		c-0.7-3,1.6-2.2,3-2.3c0.1,4.5-3.3,8.3-3.5,12.7c2.3,0.7,4.4,2,6.8,2.4c1.5-4.5,3.3-8.9,4.9-13.3c0.8,0,1.4,0.4,2.2,0.6
		c-1.3,5.3-3.6,10.4-5.3,15.6c-1.6,0.3-3.1-0.6-4.6-1c-5.5-2.3-11.4-3.6-16.8-6.1c0.1-4.9,3.1-9.1,4.1-13.8
		C498.8,183.2,499.5,182.8,499.9,182.3z"/>
	<path class="st1" d="M699.9,254c6.9,2.4,13.8,5.1,20.7,7.7c1.1,0.4,1.1,2.2,0,2.5c-6.5,2.8-13.4,4.2-20.1,6.1
		c-0.2,0.2-0.5,0.7-0.7,0.9c5.1,1.7,9.9,3.9,15,5.6c1.2,0.3,0.7,1.8,0.8,2.7c-1.5,0.2-2.9-0.5-4.2-1c-6-2.2-12-4.2-17.8-6.8
		c-0.6-1.7,1.2-2.6,2.4-3.2c6.5-1.5,12.7-3.8,19.1-5.6c-0.6-1-1.8-1.3-2.9-1.7c-4.3-1.5-8.6-3-12.8-4.7
		C699.2,255.7,698.9,254.5,699.9,254z"/>
	<path class="st1" d="M514,254.7c0.4-0.1,1.1-0.1,1.5-0.2c2.1,4.3,3.3,9.1,5.2,13.5c0.4,1.2,0.1,3.2-1.5,2.8
		c-2.1-4-3.2-8.5-4.9-12.7c-2.7-0.4-4.9,1.3-7.4,1.9c0.7,4.3,3.5,8.2,4.1,12.6c-0.8,0-1.5,0-2.3,0c-1.1-1.8-1.4-3.9-2.3-5.8
		c-1-1.5-0.3-5.5-3-5.2c-2.2,0.5-4.4,1.1-6.3,2.4c1.5,4.1,3.2,8.1,4.5,12.2c0.6,1.4-2,2.2-2.4,0.7c-1.8-4.8-3.7-9.7-5.1-14.7
		C500.4,259,507.3,257.1,514,254.7z"/>
	<g>
		<path class="st1" d="M525.1,279.7c1.5-1,2.6,1.3,3.3,2.2c2.5,3.5,6.2,7.3,5.6,12c-0.9,3.6-3.5,6.7-6.8,8.4c-2.5,2.1-6,2.8-9.2,2.2
			c-4.2-2.7-7.2-7-10.1-11c0-0.2,0.1-0.7,0.1-1C513.8,288.3,519.5,284.1,525.1,279.7z M525.5,283.1c-4.7,3.5-10.3,6.5-14,11
			c2,2.7,4.1,5.7,7.2,7.4c5.3,1.2,10.4-2.9,12.5-7.6C531.6,289.6,528.4,285.5,525.5,283.1z"/>
	</g>
	<g>
		<path class="st1" d="M686.5,284.4c8.6-2,18.2,6.5,16,15.4c-1.1,2.6-3.2,4.6-5.2,6.4c-7.9,4.4-18.8-3.2-18.4-12
			C679.9,290,682.3,286.1,686.5,284.4z M687.1,287.3c-3.2,1.8-6,5-5.2,9c1.7,4.9,6.9,9.6,12.4,8.1c2.4-1.2,4.5-3.1,5.4-5.6
			C701.3,291.8,693.6,285.9,687.1,287.3z"/>
	</g>
	<path class="st1" d="M544.2,301.8c0.9-0.3,2.2,0,2.2,1.1c-2.6,5.5-8.3,9.5-9.3,15.7c0.5,3.7,4,6.4,7.6,7c4-0.4,6.3-4.3,8.5-7.2
		c1.7-2.4,3.6-4.8,5-7.4c1.1-0.1,1.6,1.1,2.3,1.7c-2.4,3.5-4.9,6.9-7.2,10.4c-2.4,2.2-4.8,5.8-8.6,4.8c-2.2,0.6-4-0.8-5.7-1.9
		c-1.9-2.1-5.1-4-4.2-7.4c-0.9-2.6,0.9-4.6,2.1-6.6C539.2,308.5,541.9,305.2,544.2,301.8z"/>
	<path class="st1" d="M666.1,304.7c2.6-0.7,3.3,2.9,5,4.2c3.3,4.5,7.1,8.6,10.1,13.3c-0.4,0.8-1.2,2-2.2,1.6
		c-3.9-4.2-6.8-9.1-10.5-13.4C667.6,308.7,663.8,306.6,666.1,304.7z"/>
	<path class="st1" d="M655.6,311.8c1.3-0.9,2.6,0.6,2.1,2c-2.3,1-4.6,2.1-6.8,3.2c-0.5,1.7,1.3,2.9,1.8,4.4
		c1.8,4.6,4.6,8.9,6.2,13.5c0.7,1.8-2.9,2.7-2.8,0.5c-2.5-5.7-5.2-11.2-7.8-16.8c-2.7-0.6-4.4,2.4-7,2.6c-1.4,0.8-2.2-1.7-1.2-2.3
		C645.2,316.5,650.5,314.3,655.6,311.8z"/>
	<path class="st1" d="M585,322.7l2.6,0.1c3.2,5.8,6.4,11.5,9.7,17.2c0.5,0.8,0.2,2.3,1.5,1.9c0.5-4.9,1.2-9.7,1.9-14.5
		c0.3-1,0.5-2.1,1.2-2.9c0.7,0,1.4,0.4,2.1,0.6c-0.6,4-0.8,8-1.8,12c-0.7,3.5-0.3,7.3-1.6,10.6c-1,0-2.7,0.6-2.8-1.1
		c-3.3-6.2-7-12.2-10-18.6c-1.3,0.6-1.6,1.8-1.1,3.5c-0.5,4.7-1.3,9.3-1.8,14l-2.8,0C582.3,337.8,583.8,330.2,585,322.7z"/>
	<g>
		<path class="st1" d="M622.9,322.7c3.3-1.8,3.4,2.1,4.9,3.6c3.7,5.8,7.7,11.4,11.3,17.2c-0.7,0.9-1.8,0.7-2.8,0.6
			c-1.3-1.5-2.2-3.4-3.2-5c-2.9-0.3-5.8,1-8.8,1.3c-6.5-2.1-2.2,8.8-8,7.3c1.9-8.1,3.9-16.2,6-24.3
			C622.5,323.2,622.8,322.9,622.9,322.7z M624.6,326.8c-1.5,3.5-1.9,7.4-3,11.1c3.2-0.1,6.2-0.9,9.4-1.3
			C629.4,333.1,626.8,329.7,624.6,326.8z"/>
	</g>
</g>
<g>
	<g>
		<path class="st2" d="M234.7,470.5l-4.3-40.2h7.4l2.5,33.6h0.8l3-23.4h6.6l-2.4,7.7h-1.1l-2.3,22.3L234.7,470.5L234.7,470.5z
			 M249.7,470.5l-2.3-22.3h-1.1l-2.3-7.7h6.6l2.9,23.4h0.8l2.5-33.6h7.4l-4.3,40.2L249.7,470.5L249.7,470.5z"/>
		<path class="st2" d="M283.9,471.1c-5.2,0-9.2-1.4-12-4c-2.8-2.7-4.2-6.6-4.2-11.6c0-4.9,1.2-8.7,3.6-11.4s5.8-4.1,10.2-4.1
			c4.3,0,7.6,1.3,9.9,3.8c2.3,2.5,3.5,6.2,3.5,11c0,1.4-0.1,2.6-0.2,3.9h-22v-5.3h14.7c0-2-0.5-3.6-1.5-4.6c-1-1.1-2.5-1.6-4.3-1.6
			c-2,0-3.5,0.7-4.7,2.1c-1.1,1.4-1.7,3.5-1.7,6.1c0,2.8,0.8,5,2.5,6.5c1.6,1.5,4,2.2,7,2.2c1.4,0,2.7-0.1,4-0.2
			c1.3-0.1,2.7-0.3,4-0.6l0.7,7.2c-1.9,0.3-3.7,0.6-5.3,0.6S285.1,471.1,283.9,471.1z"/>
		<path class="st2" d="M313.9,452.9l-5.1-4.9l3.4-3.5c0.7-0.7,1.1-1.3,1.4-2s0.4-1.3,0.4-1.9c0-1-0.3-1.7-0.9-2.2
			c-0.6-0.5-1.4-0.7-2.6-0.7h-1.8v-7.4h2.7c3.4,0,5.9,0.8,7.5,2.4c1.6,1.6,2.4,4,2.4,7.3c0,1.9-0.4,3.6-1.1,5.2
			c-0.8,1.6-1.9,3.2-3.4,4.7L313.9,452.9z"/>
		<path class="st2" d="M334,470.5V464h21v6.6H334z M335.1,447.1v-6.6h11.3l0.6,6.6H335.1z M340.4,470.5v-30h6.5l1.1,8.6v21.4H340.4z
			 M348,457.6l-1.8-10.3h2.6c0.3-4.9,2.9-7.3,7.7-7.3c2.9,0,5,1,6.6,3.1c1.5,2.1,2.3,5.1,2.3,9.1h-7.6c0-1.8-0.3-3-1-3.8
			s-1.7-1.2-3.2-1.2c-1.9,0-3.3,0.9-4.2,2.7C348.5,451.7,348,454.3,348,457.6z"/>
		<path class="st2" d="M385.9,471.1c-5.2,0-9.2-1.4-12-4c-2.8-2.7-4.2-6.6-4.2-11.6c0-4.9,1.2-8.7,3.6-11.4s5.8-4.1,10.2-4.1
			c4.3,0,7.6,1.3,9.9,3.8c2.3,2.5,3.5,6.2,3.5,11c0,1.4-0.1,2.6-0.2,3.9h-22v-5.3h14.7c0-2-0.5-3.6-1.5-4.6c-1-1.1-2.5-1.6-4.3-1.6
			c-2,0-3.5,0.7-4.7,2.1c-1.1,1.4-1.7,3.5-1.7,6.1c0,2.8,0.8,5,2.5,6.5c1.6,1.5,4,2.2,7,2.2c1.4,0,2.7-0.1,4-0.2
			c1.3-0.1,2.7-0.3,4-0.6l0.7,7.2c-1.9,0.3-3.7,0.6-5.3,0.6S387.1,471.1,385.9,471.1z"/>
		<path class="st2" d="M438.2,470.5v-40.2h7.5v40.2H438.2z M438.2,470.5v-6.9h27.6v6.9H438.2z"/>
		<path class="st2" d="M480.5,471.1c-3.2,0-5.7-0.8-7.5-2.4c-1.8-1.6-2.7-3.8-2.7-6.7c0-3.4,1.2-5.9,3.5-7.7s5.6-2.7,9.9-2.7
			c1.6,0,3.1,0.1,4.3,0.2s2.4,0.4,3.6,0.8l-1.2,6c-1.2-0.3-2.3-0.5-3.3-0.5c-1,0-2-0.1-3-0.1c-4,0-6,1.1-6,3.4c0,1,0.4,1.8,1.1,2.3
			s1.8,0.8,3.1,0.8c1.7,0,3-0.3,4.2-0.9c1.1-0.6,2-1.4,2.5-2.4s0.8-2,0.8-3v-1.9l1.1,7.7h-2.4l1-0.9c-0.1,1.7-0.5,3.2-1.2,4.4
			s-1.8,2-3.1,2.6C484,470.8,482.4,471.1,480.5,471.1z M490.7,470.8l-0.6-8.9l-0.1-3.9v-5.9c0-1.6-0.7-2.8-2-3.5s-3.4-1.2-6.1-1.2
			l-7.7-0.2l0.6-7l6.5,0.1c5.4,0.1,9.5,1.1,12.1,3.2c2.6,2.1,4,5.1,4,9v11.1l4.2,0.6v6.2L490.7,470.8z"/>
		<path class="st2" d="M514.8,471.1c-2.9,0-5.1-0.9-6.6-2.8s-2.4-4.5-2.4-7.9v-19.8h7.7v17.9c0,1.7,0.4,3,1.2,4
			c0.8,0.9,1.9,1.4,3.2,1.4c1.8,0,3.2-0.7,4.1-2.1c0.9-1.4,1.4-3.7,1.4-7l1.5,10h-2.3c-0.5,2-1.4,3.6-2.8,4.7
			S516.8,471.1,514.8,471.1z M523.3,462.1v-21.5h7.7v19.8L523.3,462.1z M523.8,470.8l-0.5-7.2v-5.3h7.7v5.3l4.1,0.6v6.2L523.8,470.8
			z"/>
		<path class="st2" d="M540.4,470.5v-30h6.8l0.8,6.3v23.7H540.4z M558.2,470.5v-17.6c0-1.8-0.4-3.2-1.1-4.2s-1.8-1.5-3.2-1.5
			c-3.8,0-5.8,2.8-5.8,8.3l-1.8-9.6h2.5c0.3-2,1-3.5,2.1-4.5c1.1-1,2.8-1.5,5-1.5c3.2,0,5.6,1,7.4,2.9c1.7,1.9,2.6,4.6,2.6,8.2v19.5
			L558.2,470.5L558.2,470.5z"/>
		<path class="st2" d="M590.6,471.1c-5.5,0-9.7-1.4-12.7-4s-4.5-6.6-4.5-11.6c0-4.9,1.4-8.7,4.1-11.4s6.6-4.1,11.6-4.1
			c3.1,0,5.8,0.6,8,1.8s3.8,2.9,4.7,5.1l-5.5,4.4c-0.8-1.3-1.9-2.3-3.2-3c-1.3-0.7-2.7-1.1-4.2-1.1c-2.3,0-4.1,0.7-5.4,2.1
			s-1.9,3.3-1.9,5.9c0,2.8,0.8,5,2.5,6.4s4.1,2.2,7.2,2.2c1.4,0,2.7-0.1,4.1-0.2s2.7-0.3,4-0.5l0.8,7.2c-1.5,0.3-3.1,0.6-4.7,0.7
			C593.8,471.1,592.2,471.1,590.6,471.1z"/>
		<path class="st2" d="M608.4,470.5v-42.5h7.7v42.5H608.4z M626.1,470.5v-18.1c0-1.7-0.4-3-1.1-3.9s-1.8-1.4-3.2-1.4
			c-3.8,0-5.8,2.6-5.8,7.9l-1.8-9.1h2.5c0.3-2,1-3.5,2.1-4.5c1.1-1,2.8-1.5,5-1.5c3.2,0,5.6,1,7.4,2.9c1.7,1.9,2.6,4.6,2.6,8.2v19.5
			L626.1,470.5L626.1,470.5z"/>
		<path class="st2" d="M642.1,470.5v-7.1h11.7v7.1H642.1z M643.8,447.6v-7.1h17v7.1H643.8z M656.7,436.5c-1.5,0-2.6-0.5-3.5-1.4
			s-1.4-2.1-1.4-3.5s0.5-2.6,1.4-3.5s2.1-1.4,3.5-1.4s2.6,0.5,3.5,1.4s1.4,2.1,1.4,3.5s-0.5,2.6-1.4,3.5S658.2,436.5,656.7,436.5z
			 M653.2,470.5v-28.3h7.7v28.3H653.2z M660.3,470.5v-7.1h9.5v7.1H660.3z"/>
		<path class="st2" d="M676.3,470.5v-30h6.8l0.8,6.3v23.7H676.3z M694.1,470.5v-17.6c0-1.8-0.4-3.2-1.1-4.2s-1.8-1.5-3.2-1.5
			c-3.8,0-5.8,2.8-5.8,8.3l-1.8-9.6h2.5c0.3-2,1-3.5,2.1-4.5c1.1-1,2.8-1.5,5-1.5c3.2,0,5.6,1,7.4,2.9s2.6,4.6,2.6,8.2v19.5
			L694.1,470.5L694.1,470.5z"/>
		<path class="st2" d="M720.1,471.1c-3.7,0-6.6-1.3-8.7-4s-3.1-6.5-3.1-11.5c0-5,1-8.8,3.1-11.5c2.1-2.7,5-4.1,8.7-4.1
			c2.3,0,4,0.5,5.2,1.5s2,2.5,2.3,4.5h2.2l-1.8,9.6c0-2.9-0.5-5-1.5-6.4c-1-1.3-2.4-2-4.4-2c-1.9,0-3.3,0.7-4.3,2.2
			s-1.5,3.5-1.5,6.2c0,2.8,0.5,4.8,1.5,6.2c1,1.4,2.5,2.1,4.4,2.1c2.2,0,3.7-0.7,4.6-2s1.3-3.4,1.3-6.3l2,9.5h-2.7
			c-0.3,2-1.1,3.5-2.3,4.5S722.2,471.1,720.1,471.1z M711.2,484.1l-0.3-6.7l9.6-0.3c2.6-0.1,4.6-0.8,5.8-2.2s1.8-3.4,1.8-6.1v-21.9
			l0.6-6.3h7.1v27.4c0,5.3-1.3,9.3-3.8,11.8s-6.5,3.9-12,4.1L711.2,484.1z"/>
		<path class="st2" d="M789.6,471.1c-2.3,0-4.5-0.2-6.7-0.6c-2.2-0.4-4.1-0.9-5.8-1.6l1-7.6c2.1,0.9,4.1,1.5,6.2,2s3.9,0.7,5.7,0.7
			c2,0,3.6-0.4,4.6-1.1s1.6-1.8,1.6-3.1c0-1.8-1.1-3.1-3.3-4.2l-5.8-2.8c-2.8-1.4-5.1-3.1-6.6-5.2s-2.3-4.3-2.3-6.8
			c0-3.5,1.2-6.2,3.5-8.2s5.6-2.9,9.9-2.9c2.5,0,4.8,0.4,7,1.3s4.2,2.1,5.9,3.8l-5.2,5.9c-1.3-1.2-2.6-2.2-3.9-2.9
			c-1.3-0.7-2.6-1-3.8-1c-1.7,0-3,0.4-3.9,1.1s-1.4,1.7-1.4,3.1c0,0.9,0.3,1.7,1,2.5c0.7,0.8,1.6,1.5,2.8,2.1l5.4,2.8
			c2.8,1.5,5,3.2,6.6,5.1s2.3,4.1,2.3,6.3c0,3.6-1.3,6.3-3.8,8.3C798,470.1,794.4,471.1,789.6,471.1z"/>
		<path class="st2" d="M825,471.1c-4.3,0-7.7-1.4-10-4.1s-3.6-6.5-3.6-11.5c0-5,1.2-8.8,3.6-11.5c2.4-2.7,5.7-4.1,10-4.1
			s7.7,1.4,10,4.1s3.6,6.5,3.6,11.5c0,5-1.2,8.8-3.6,11.5S829.3,471.1,825,471.1z M825,463.8c1.7,0,3.1-0.7,4-2.2
			c1-1.4,1.4-3.5,1.4-6.1c0-2.7-0.5-4.7-1.4-6.1c-1-1.4-2.3-2.1-4.1-2.1c-1.7,0-3.1,0.7-4,2.1s-1.4,3.5-1.4,6.1
			c0,2.6,0.5,4.7,1.4,6.1C821.9,463.1,823.3,463.8,825,463.8z"/>
		<path class="st2" d="M859,471.1c-4.3,0-7.7-1.4-10-4.1s-3.6-6.5-3.6-11.5c0-5,1.2-8.8,3.6-11.5c2.4-2.7,5.7-4.1,10-4.1
			s7.7,1.4,10,4.1s3.6,6.5,3.6,11.5c0,5-1.2,8.8-3.6,11.5S863.3,471.1,859,471.1z M859,463.8c1.7,0,3.1-0.7,4-2.2
			c1-1.4,1.4-3.5,1.4-6.1c0-2.7-0.5-4.7-1.4-6.1c-1-1.4-2.3-2.1-4.1-2.1c-1.7,0-3.1,0.7-4,2.1s-1.4,3.5-1.4,6.1
			c0,2.6,0.5,4.7,1.4,6.1C855.9,463.1,857.3,463.8,859,463.8z"/>
		<path class="st2" d="M880.3,470.5v-30h6.8l0.8,6.3v23.7H880.3z M898,470.5v-17.6c0-1.8-0.4-3.2-1.1-4.2s-1.8-1.5-3.2-1.5
			c-3.8,0-5.8,2.8-5.8,8.3l-1.8-9.6h2.5c0.3-2,1-3.5,2.1-4.5c1.1-1,2.8-1.5,5-1.5c3.2,0,5.6,1,7.4,2.9s2.6,4.6,2.6,8.2v19.5
			L898,470.5L898,470.5z"/>
		<path class="st2" d="M960.9,471.1c-1.4,0-2.7-0.5-3.7-1.5c-1-1-1.5-2.2-1.5-3.6c0-1.4,0.5-2.6,1.5-3.6s2.2-1.5,3.7-1.5
			s2.7,0.5,3.7,1.5s1.5,2.2,1.5,3.6c0,1.4-0.5,2.6-1.5,3.6C963.6,470.6,962.4,471.1,960.9,471.1z M957.2,454.8l-0.7-24.8h8.7
			l-0.8,24.8H957.2z"/>
		<path class="st2" d="M994.9,471.1c-1.4,0-2.7-0.5-3.7-1.5c-1-1-1.5-2.2-1.5-3.6c0-1.4,0.5-2.6,1.5-3.6s2.2-1.5,3.7-1.5
			s2.7,0.5,3.7,1.5s1.5,2.2,1.5,3.6c0,1.4-0.5,2.6-1.5,3.6C997.6,470.6,996.4,471.1,994.9,471.1z M991.2,454.8l-0.7-24.8h8.7
			l-0.8,24.8H991.2z"/>
		<path class="st2" d="M1028.9,471.1c-1.4,0-2.7-0.5-3.7-1.5c-1-1-1.5-2.2-1.5-3.6c0-1.4,0.5-2.6,1.5-3.6s2.2-1.5,3.7-1.5
			s2.7,0.5,3.7,1.5s1.5,2.2,1.5,3.6c0,1.4-0.5,2.6-1.5,3.6C1031.6,470.6,1030.3,471.1,1028.9,471.1z M1025.2,454.8l-0.7-24.8h8.7
			l-0.8,24.8H1025.2z"/>
	</g>
</g>
</svg>
